<svg width="190" height="48" viewBox="0 0 190 48" fill="none" xmlns="http://www.w3.org/2000/svg">
<path d="M18.672 45.36C14.864 45.36 11.552 44.672 8.736 43.296C5.92 41.888 3.76 39.904 2.256 37.344C0.752 34.784 0 31.808 0 28.416C0 23.712 0.88 19.536 2.64 15.888C4.432 12.24 6.848 9.424 9.888 7.44C12.928 5.424 16.304 4.416 20.016 4.416C23.472 4.416 26.096 5.312 27.888 7.104C29.68 8.864 30.576 11.2 30.576 14.112C30.576 16.064 30.224 17.632 29.52 18.816C28.848 20 27.872 20.592 26.592 20.592C25.696 20.592 24.992 20.384 24.48 19.968C23.968 19.552 23.712 18.944 23.712 18.144C23.712 17.856 23.776 17.328 23.904 16.56C24.096 15.6 24.192 14.832 24.192 14.256C24.192 11.344 22.64 9.888 19.536 9.888C17.424 9.888 15.408 10.576 13.488 11.952C11.568 13.328 10.016 15.36 8.832 18.048C7.648 20.704 7.056 23.872 7.056 27.552C7.056 31.392 8.128 34.368 10.272 36.48C12.416 38.56 15.584 39.6 19.776 39.6C21.856 39.6 23.952 39.344 26.064 38.832C28.208 38.288 30.576 37.472 33.168 36.384C33.648 36.192 34.048 36.096 34.368 36.096C34.88 36.096 35.264 36.288 35.52 36.672C35.776 37.056 35.904 37.552 35.904 38.16C35.904 40.112 34.848 41.552 32.736 42.48C30.464 43.472 28.096 44.208 25.632 44.688C23.2 45.136 20.88 45.36 18.672 45.36Z" fill="#212540"/>
<path d="M38.0423 45.36C36.0583 45.36 34.4743 44.64 33.2902 43.2C32.1062 41.76 31.5142 39.872 31.5142 37.536C31.5142 34.976 32.1062 32.56 33.2902 30.288C34.4743 27.984 36.0423 26.144 37.9943 24.768C39.9783 23.36 42.0742 22.656 44.2822 22.656C44.9862 22.656 45.4503 22.8 45.6743 23.088C45.9303 23.344 46.1383 23.824 46.2983 24.528C46.9703 24.4 47.6743 24.336 48.4103 24.336C49.9783 24.336 50.7622 24.896 50.7622 26.016C50.7622 26.688 50.5223 28.288 50.0423 30.816C49.3063 34.496 48.9383 37.056 48.9383 38.496C48.9383 38.976 49.0503 39.36 49.2743 39.648C49.5303 39.936 49.8503 40.08 50.2342 40.08C50.8423 40.08 51.5783 39.696 52.4422 38.928C53.3063 38.128 54.4743 36.848 55.9463 35.088C56.3303 34.64 56.7623 34.416 57.2423 34.416C57.6583 34.416 57.9783 34.608 58.2023 34.992C58.4583 35.376 58.5863 35.904 58.5863 36.576C58.5863 37.856 58.2822 38.848 57.6743 39.552C56.3623 41.184 54.9703 42.56 53.4983 43.68C52.0263 44.8 50.6022 45.36 49.2262 45.36C48.1702 45.36 47.1943 45.008 46.2983 44.304C45.4342 43.568 44.7783 42.576 44.3302 41.328C42.6662 44.016 40.5703 45.36 38.0423 45.36ZM39.7703 40.512C40.4743 40.512 41.1463 40.096 41.7863 39.264C42.4263 38.432 42.8903 37.328 43.1782 35.952L44.9543 27.12C43.6102 27.152 42.3623 27.664 41.2103 28.656C40.0903 29.616 39.1943 30.896 38.5223 32.496C37.8503 34.096 37.5143 35.792 37.5143 37.584C37.5143 38.576 37.7063 39.312 38.0903 39.792C38.5063 40.272 39.0663 40.512 39.7703 40.512Z" fill="#212540"/>
<path d="M63.6131 46.416C61.9491 46.416 60.6691 46.032 59.7731 45.264C58.9091 44.496 58.4771 43.632 58.4771 42.672C58.4771 41.84 58.7811 41.12 59.3891 40.512C59.9971 39.904 60.8931 39.6 62.0771 39.6C62.4931 39.6 62.9731 39.648 63.5171 39.744C64.0931 39.808 64.5251 39.856 64.8131 39.888C64.7811 39.056 64.5891 38.272 64.2371 37.536C63.9171 36.8 63.5011 36.096 62.9891 35.424C62.4771 34.72 61.9971 34.112 61.5491 33.6C60.5571 35.488 59.5651 37.056 58.5731 38.304C57.6131 39.552 56.5571 40.736 55.4051 41.856C54.8291 42.432 54.2211 42.72 53.5811 42.72C53.0691 42.72 52.6531 42.544 52.3331 42.192C52.0131 41.808 51.8531 41.344 51.8531 40.8C51.8531 40.16 52.0771 39.568 52.5251 39.024L53.1491 38.256C54.9091 36.08 56.2371 34.288 57.1331 32.88C57.6771 31.952 58.3171 30.72 59.0531 29.184C59.7891 27.616 60.5091 26 61.2131 24.336C61.8211 22.928 63.0851 22.224 65.0051 22.224C65.9011 22.224 66.5251 22.304 66.8771 22.464C67.2291 22.624 67.4051 22.88 67.4051 23.232C67.4051 23.424 67.3411 23.728 67.2131 24.144C67.0851 24.56 66.9091 24.976 66.6851 25.392C66.1091 26.544 65.8211 27.52 65.8211 28.32C65.8211 28.8 65.9811 29.328 66.3011 29.904C66.6531 30.48 67.1811 31.2 67.8851 32.064C68.9091 33.408 69.6771 34.56 70.1891 35.52C70.7331 36.448 71.0051 37.472 71.0051 38.592C71.0051 38.912 70.9731 39.36 70.9091 39.936C72.4771 39.328 74.3171 37.712 76.4291 35.088C76.8131 34.64 77.2451 34.416 77.7251 34.416C78.1411 34.416 78.4611 34.608 78.6851 34.992C78.9411 35.376 79.0691 35.904 79.0691 36.576C79.0691 37.792 78.7651 38.784 78.1571 39.552C76.5571 41.536 75.0211 42.896 73.5491 43.632C72.1091 44.336 70.3171 44.72 68.1731 44.784C66.8931 45.872 65.3731 46.416 63.6131 46.416Z" fill="#212540"/>
<path d="M101.81 34.416C102.226 34.416 102.546 34.608 102.77 34.992C103.025 35.376 103.154 35.904 103.154 36.576C103.154 37.856 102.85 38.848 102.242 39.552C100.77 41.248 99.2495 42.64 97.6815 43.728C96.1455 44.816 94.3855 45.36 92.4015 45.36C90.7695 45.36 89.5375 44.896 88.7055 43.968C87.8735 43.008 87.4575 41.632 87.4575 39.84C87.4575 38.944 87.6815 37.344 88.1295 35.04C88.5455 33.024 88.7535 31.632 88.7535 30.864C88.7535 30.352 88.5775 30.096 88.2255 30.096C87.8095 30.096 87.2175 30.64 86.4495 31.728C85.6815 32.784 84.9135 34.192 84.1455 35.952C83.3775 37.712 82.7535 39.568 82.2735 41.52C81.6655 44.08 80.1615 45.36 77.7615 45.36C76.8015 45.36 76.1615 45.024 75.8415 44.352C75.5535 43.648 75.4095 42.4 75.4095 40.608C75.4095 39.584 75.4255 38.768 75.4575 38.16L75.5055 34.32C75.5055 29.392 76.0015 24.256 76.9935 18.912C78.0175 13.568 79.5055 9.088 81.4575 5.472C83.4415 1.824 85.8095 0 88.5615 0C90.0335 0 91.2175 0.64 92.1135 1.92C93.0415 3.168 93.5055 4.8 93.5055 6.816C93.5055 10.048 92.5615 13.408 90.6735 16.896C88.7855 20.352 85.7135 24.4 81.4575 29.04C81.3615 30.704 81.3135 32.416 81.3135 34.176C82.3695 31.456 83.5375 29.248 84.8175 27.552C86.1295 25.824 87.4095 24.592 88.6575 23.856C89.9375 23.12 91.1055 22.752 92.1615 22.752C94.2415 22.752 95.2815 23.792 95.2815 25.872C95.2815 27.12 94.9295 29.376 94.2255 32.64C93.6175 35.424 93.3135 37.264 93.3135 38.16C93.3135 39.44 93.7775 40.08 94.7055 40.08C95.3455 40.08 96.0975 39.696 96.9615 38.928C97.8575 38.128 99.0415 36.848 100.514 35.088C100.898 34.64 101.329 34.416 101.81 34.416ZM87.5535 4.752C86.9775 4.752 86.3375 5.584 85.6335 7.248C84.9295 8.88 84.2415 11.104 83.5695 13.92C82.9295 16.704 82.4015 19.744 81.9855 23.04C83.9695 20.704 85.6015 18.16 86.8815 15.408C88.1935 12.656 88.8495 10.16 88.8495 7.92C88.8495 6.896 88.7375 6.112 88.5135 5.568C88.2895 5.024 87.9695 4.752 87.5535 4.752Z" fill="#212540"/>
<path d="M126.527 34.416C126.943 34.416 127.263 34.608 127.487 34.992C127.743 35.376 127.871 35.904 127.871 36.576C127.871 37.856 127.567 38.848 126.959 39.552C125.647 41.152 124.207 42.528 122.639 43.68C121.071 44.8 119.519 45.36 117.983 45.36C115.551 45.36 113.695 43.936 112.415 41.088C111.071 42.784 109.887 43.92 108.863 44.496C107.871 45.072 106.703 45.36 105.359 45.36C103.407 45.36 101.791 44.64 100.511 43.2C99.2633 41.728 98.6393 39.824 98.6393 37.488C98.6393 34.928 99.1833 32.56 100.271 30.384C101.359 28.176 102.847 26.384 104.735 25.008C106.655 23.6 108.799 22.768 111.167 22.512C111.775 16.304 112.927 11.008 114.623 6.624C116.351 2.208 118.607 0 121.391 0C122.767 0 123.903 0.624 124.799 1.872C125.727 3.12 126.191 5.008 126.191 7.536C126.191 11.12 125.311 15.312 123.551 20.112C121.791 24.912 119.439 29.84 116.495 34.896C116.623 36.752 116.895 38.08 117.311 38.88C117.759 39.68 118.319 40.08 118.991 40.08C119.855 40.08 120.735 39.696 121.631 38.928C122.527 38.16 123.727 36.88 125.231 35.088C125.615 34.64 126.047 34.416 126.527 34.416ZM120.863 4.704C120.255 4.704 119.647 5.792 119.039 7.968C118.431 10.112 117.903 12.928 117.455 16.416C117.039 19.904 116.735 23.552 116.543 27.36C120.127 19.552 121.919 13.28 121.919 8.544C121.919 7.328 121.807 6.384 121.583 5.712C121.391 5.04 121.151 4.704 120.863 4.704ZM107.039 40.512C107.647 40.512 108.255 40.272 108.863 39.792C109.471 39.28 110.239 38.352 111.167 37.008C110.847 35.28 110.687 33.344 110.687 31.2C110.687 30.432 110.719 29.184 110.783 27.456C109.023 28 107.551 29.184 106.367 31.008C105.215 32.8 104.639 34.8 104.639 37.008C104.639 39.344 105.439 40.512 107.039 40.512Z" fill="#212540"/>
<path d="M129.402 45.36C127.418 45.36 125.834 44.64 124.65 43.2C123.466 41.76 122.874 39.872 122.874 37.536C122.874 34.976 123.466 32.56 124.65 30.288C125.834 27.984 127.402 26.144 129.354 24.768C131.338 23.36 133.434 22.656 135.642 22.656C136.346 22.656 136.81 22.8 137.034 23.088C137.29 23.344 137.498 23.824 137.658 24.528C138.33 24.4 139.034 24.336 139.77 24.336C141.338 24.336 142.122 24.896 142.122 26.016C142.122 26.688 141.882 28.288 141.402 30.816C140.666 34.496 140.298 37.056 140.298 38.496C140.298 38.976 140.41 39.36 140.634 39.648C140.89 39.936 141.21 40.08 141.594 40.08C142.202 40.08 142.938 39.696 143.802 38.928C144.666 38.128 145.834 36.848 147.306 35.088C147.69 34.64 148.122 34.416 148.602 34.416C149.018 34.416 149.338 34.608 149.562 34.992C149.818 35.376 149.946 35.904 149.946 36.576C149.946 37.856 149.642 38.848 149.034 39.552C147.722 41.184 146.33 42.56 144.858 43.68C143.386 44.8 141.962 45.36 140.586 45.36C139.53 45.36 138.554 45.008 137.658 44.304C136.794 43.568 136.138 42.576 135.69 41.328C134.026 44.016 131.93 45.36 129.402 45.36ZM131.13 40.512C131.834 40.512 132.506 40.096 133.146 39.264C133.786 38.432 134.25 37.328 134.538 35.952L136.314 27.12C134.97 27.152 133.722 27.664 132.57 28.656C131.45 29.616 130.554 30.896 129.882 32.496C129.21 34.096 128.874 35.792 128.874 37.584C128.874 38.576 129.066 39.312 129.45 39.792C129.866 40.272 130.426 40.512 131.13 40.512Z" fill="#212540"/>
<path d="M154.876 45.788C153.212 45.788 152.029 46.032 151.133 45.264C150.269 44.496 149.837 43.632 149.837 42.672C149.837 41.84 150.141 41.12 150.749 40.512C151.357 39.904 152.252 39.6 153.436 39.6C153.852 39.6 154.332 39.648 154.876 39.744C155.452 39.808 155.885 39.856 156.173 39.888C156.141 39.056 155.949 38.272 155.596 37.536C155.276 36.8 154.86 36.096 154.348 35.424C153.837 34.72 153.356 34.112 152.908 33.6C151.916 35.488 150.924 37.056 149.932 38.304C148.972 39.552 147.916 40.736 146.764 41.856C146.188 42.432 145.581 42.72 144.941 42.72C144.429 42.72 144.013 42.544 143.693 42.192C143.372 41.808 143.212 41.344 143.212 40.8C143.212 40.16 143.437 39.568 143.885 39.024L144.508 38.256C146.268 36.08 147.596 34.288 148.492 32.88C149.036 31.952 149.676 30.72 150.413 29.184C151.148 27.616 151.868 26 152.572 24.336C153.18 22.928 154.445 22.224 156.365 22.224C157.26 22.224 157.884 22.304 158.236 22.464C158.589 22.624 158.764 22.88 158.764 23.232C158.764 23.424 158.701 23.728 158.572 24.144C158.444 24.56 158.268 24.976 158.044 25.392C157.468 26.544 157.18 27.52 157.18 28.32C157.18 28.8 157.34 29.328 157.661 29.904C158.013 30.48 158.541 31.2 159.245 32.064C160.269 33.408 161.037 34.56 161.549 35.52C162.093 36.448 162.365 37.472 162.365 38.592C162.365 38.912 162.332 39.36 162.268 39.936C163.836 39.328 165.676 37.712 167.788 35.088C168.173 34.64 168.605 34.416 169.085 34.416C169.501 34.416 169.82 34.608 170.044 34.992C170.3 35.376 170.428 35.904 170.428 36.576C170.428 37.792 170.124 38.784 169.516 39.552C167.916 41.536 166.38 42.896 164.908 43.632C163.468 44.336 161.676 44.72 159.533 44.784C158.253 45.872 156.636 45.788 154.876 45.788Z" fill="#212540"/>
<path d="M186.021 22.8329C187.045 22.8329 187.813 23.1049 188.325 23.6489C188.869 24.1609 189.141 24.9289 189.141 25.9529C189.141 26.7849 188.965 28.3529 188.613 30.6569C188.293 32.6089 188.037 34.4649 187.845 36.2249C187.653 37.9529 187.557 39.8889 187.557 42.0329C187.557 43.2489 187.301 44.1289 186.789 44.6729C186.309 45.1849 185.509 45.4409 184.389 45.4409C183.333 45.4409 52.98 47.6249 52.5 47.0809C52.02 46.5369 181.365 43.2649 181.365 42.1769C181.365 40.8969 181.589 38.7849 182.037 35.8409C182.421 33.2809 182.613 31.6489 182.613 30.9449C182.613 30.4329 182.437 30.1769 182.085 30.1769C181.669 30.1769 181.077 30.7209 180.309 31.8089C179.541 32.8649 178.773 34.2729 178.005 36.0329C177.237 37.7929 176.613 39.6489 176.133 41.6009C175.781 43.1049 175.365 44.1289 174.885 44.6729C174.437 45.1849 173.717 45.4409 172.725 45.4409C171.733 45.4409 170.997 45.0889 170.517 44.3849C170.069 43.6489 169.765 42.5289 169.605 41.0249C169.445 39.5209 169.365 37.3129 169.365 34.4009C169.365 29.4729 169.861 24.3369 170.853 18.9929C171.877 13.6489 173.365 9.16887 175.317 5.55287C177.301 1.90487 179.669 0.0808653 182.421 0.0808653C183.893 0.0808653 185.077 0.720866 185.973 2.00087C186.901 3.24887 187.365 4.88087 187.365 6.89687C187.365 10.1289 186.421 13.4889 184.533 16.9769C182.645 20.4329 179.573 24.4809 175.317 29.1209C175.221 30.7849 175.173 32.4969 175.173 34.2569C176.229 31.5369 177.397 29.3289 178.677 27.6329C179.989 25.9049 181.269 24.6729 182.517 23.9369C183.797 23.2009 184.965 22.8329 186.021 22.8329ZM181.413 4.83287C180.837 4.83287 180.197 5.66487 179.493 7.32887C178.789 8.96087 178.101 11.1849 177.429 14.0009C176.789 16.7849 176.261 19.8249 175.845 23.1209C177.829 20.7849 179.461 18.2409 180.741 15.4889C182.053 12.7369 182.709 10.2409 182.709 8.00087C182.709 6.97687 182.597 6.19287 182.373 5.64887C182.149 5.10487 181.829 4.83287 181.413 4.83287Z" fill="#212540"/>
</svg>
